<svg width="578" height="191" viewBox="0 0 578 191" fill="none" xmlns="http://www.w3.org/2000/svg">
<path d="M8.09091 163V69.9091H69.7273V86.1364H27.7727V108.318H65.6364V124.545H27.7727V163H8.09091ZM101.966 69.9091V163H82.6023V69.9091H101.966ZM149.295 164.364C142.114 164.364 135.932 162.909 130.75 160C125.598 157.061 121.629 152.909 118.841 147.545C116.053 142.152 114.659 135.773 114.659 128.409C114.659 121.227 116.053 114.924 118.841 109.5C121.629 104.076 125.553 99.8485 130.614 96.8182C135.705 93.7879 141.674 92.2727 148.523 92.2727C153.129 92.2727 157.417 93.0152 161.386 94.5C165.386 95.9545 168.871 98.1515 171.841 101.091C174.841 104.03 177.174 107.727 178.841 112.182C180.508 116.606 181.341 121.788 181.341 127.727V133.045H122.386V121.045H163.114C163.114 118.258 162.508 115.788 161.295 113.636C160.083 111.485 158.402 109.803 156.25 108.591C154.129 107.348 151.659 106.727 148.841 106.727C145.902 106.727 143.295 107.409 141.023 108.773C138.78 110.106 137.023 111.909 135.75 114.182C134.477 116.424 133.826 118.924 133.795 121.682V133.091C133.795 136.545 134.432 139.53 135.705 142.045C137.008 144.561 138.841 146.5 141.205 147.864C143.568 149.227 146.371 149.909 149.614 149.909C151.765 149.909 153.735 149.606 155.523 149C157.311 148.394 158.841 147.485 160.114 146.273C161.386 145.061 162.356 143.576 163.023 141.818L180.932 143C180.023 147.303 178.159 151.061 175.341 154.273C172.553 157.455 168.947 159.939 164.523 161.727C160.129 163.485 155.053 164.364 149.295 164.364ZM208.909 93.1818L221.727 117.591L234.864 93.1818H254.727L234.5 128.091L255.273 163H235.5L221.727 138.864L208.182 163H188.182L208.909 128.091L188.909 93.1818H208.909Z" fill="#3B82F6"/>
<rect x="259" y="15" width="40" height="40" rx="20" fill="#3B82F6"/>
<rect x="264" y="65" width="30" height="30" rx="15" fill="#3B82F6" fill-opacity="0.8"/>
<rect x="264" y="100" width="30" height="30" rx="15" fill="#3B82F6" fill-opacity="0.6"/>
<rect x="264" y="135" width="30" height="30" rx="15" fill="#3B82F6" fill-opacity="0.4"/>
<path d="M307.091 163V69.9091H344.364C351.212 69.9091 356.924 70.9242 361.5 72.9545C366.076 74.9848 369.515 77.803 371.818 81.4091C374.121 84.9848 375.273 89.1061 375.273 93.7727C375.273 97.4091 374.545 100.606 373.091 103.364C371.636 106.091 369.636 108.333 367.091 110.091C364.576 111.818 361.697 113.045 358.455 113.773V114.682C362 114.833 365.318 115.833 368.409 117.682C371.53 119.53 374.061 122.121 376 125.455C377.939 128.758 378.909 132.697 378.909 137.273C378.909 142.212 377.682 146.621 375.227 150.5C372.803 154.348 369.212 157.394 364.455 159.636C359.697 161.879 353.833 163 346.864 163H307.091ZM326.773 146.909H342.818C348.303 146.909 352.303 145.864 354.818 143.773C357.333 141.652 358.591 138.833 358.591 135.318C358.591 132.742 357.97 130.47 356.727 128.5C355.485 126.53 353.712 124.985 351.409 123.864C349.136 122.742 346.424 122.182 343.273 122.182H326.773V146.909ZM326.773 108.864H341.364C344.061 108.864 346.455 108.394 348.545 107.455C350.667 106.485 352.333 105.121 353.545 103.364C354.788 101.606 355.409 99.5 355.409 97.0455C355.409 93.6818 354.212 90.9697 351.818 88.9091C349.455 86.8485 346.091 85.8182 341.727 85.8182H326.773V108.864ZM410.716 69.9091V163H391.352V69.9091H410.716ZM457.773 164.364C450.712 164.364 444.606 162.864 439.455 159.864C434.333 156.833 430.379 152.621 427.591 147.227C424.803 141.803 423.409 135.515 423.409 128.364C423.409 121.152 424.803 114.848 427.591 109.455C430.379 104.03 434.333 99.8182 439.455 96.8182C444.606 93.7879 450.712 92.2727 457.773 92.2727C464.833 92.2727 470.924 93.7879 476.045 96.8182C481.197 99.8182 485.167 104.03 487.955 109.455C490.742 114.848 492.136 121.152 492.136 128.364C492.136 135.515 490.742 141.803 487.955 147.227C485.167 152.621 481.197 156.833 476.045 159.864C470.924 162.864 464.833 164.364 457.773 164.364ZM457.864 149.364C461.076 149.364 463.758 148.455 465.909 146.636C468.061 144.788 469.682 142.273 470.773 139.091C471.894 135.909 472.455 132.288 472.455 128.227C472.455 124.167 471.894 120.545 470.773 117.364C469.682 114.182 468.061 111.667 465.909 109.818C463.758 107.97 461.076 107.045 457.864 107.045C454.621 107.045 451.894 107.97 449.682 109.818C447.5 111.667 445.848 114.182 444.727 117.364C443.636 120.545 443.091 124.167 443.091 128.227C443.091 132.288 443.636 135.909 444.727 139.091C445.848 142.273 447.5 144.788 449.682 146.636C451.894 148.455 454.621 149.364 457.864 149.364ZM536.182 190.636C529.909 190.636 524.53 189.773 520.045 188.045C515.591 186.348 512.045 184.03 509.409 181.091C506.773 178.152 505.061 174.848 504.273 171.182L522.182 168.773C522.727 170.167 523.591 171.47 524.773 172.682C525.955 173.894 527.515 174.864 529.455 175.591C531.424 176.348 533.818 176.727 536.636 176.727C540.848 176.727 544.318 175.697 547.045 173.636C549.803 171.606 551.182 168.197 551.182 163.409V150.636H550.364C549.515 152.576 548.242 154.409 546.545 156.136C544.848 157.864 542.667 159.273 540 160.364C537.333 161.455 534.152 162 530.455 162C525.212 162 520.439 160.788 516.136 158.364C511.864 155.909 508.455 152.167 505.909 147.136C503.394 142.076 502.136 135.682 502.136 127.955C502.136 120.045 503.424 113.439 506 108.136C508.576 102.833 512 98.8636 516.273 96.2273C520.576 93.5909 525.288 92.2727 530.409 92.2727C534.318 92.2727 537.591 92.9394 540.227 94.2727C542.864 95.5758 544.985 97.2121 546.591 99.1818C548.227 101.121 549.485 103.03 550.364 104.909H551.091V93.1818H570.318V163.682C570.318 169.621 568.864 174.591 565.955 178.591C563.045 182.591 559.015 185.591 553.864 187.591C548.742 189.621 542.848 190.636 536.182 190.636ZM536.591 147.455C539.712 147.455 542.348 146.682 544.5 145.136C546.682 143.561 548.348 141.318 549.5 138.409C550.682 135.47 551.273 131.955 551.273 127.864C551.273 123.773 550.697 120.227 549.545 117.227C548.394 114.197 546.727 111.848 544.545 110.182C542.364 108.515 539.712 107.682 536.591 107.682C533.409 107.682 530.727 108.545 528.545 110.273C526.364 111.97 524.712 114.333 523.591 117.364C522.47 120.394 521.909 123.894 521.909 127.864C521.909 131.894 522.47 135.379 523.591 138.318C524.742 141.227 526.394 143.485 528.545 145.091C530.727 146.667 533.409 147.455 536.591 147.455Z" fill="#3B82F6"/>
</svg>
